<?xml version="1.0" encoding="UTF-8"?>
<svg version="1.1" xmlns="http://www.w3.org/2000/svg" width="128" height="128">
<path d="M0 0 C1.84505532 -0.00337459 3.69010847 -0.00823254 5.53515625 -0.01449585 C9.3882377 -0.0218369 13.24073667 -0.01125158 17.09375 0.01220703 C22.0096677 0.04069331 26.92422016 0.02427438 31.84008789 -0.00565529 C35.64593621 -0.02380354 39.45146581 -0.01793592 43.25732422 -0.00501633 C45.06884934 -0.00170307 46.88040428 -0.00569541 48.69189453 -0.01741409 C60.58760821 -0.07749782 69.57267411 0.54141264 78.8125 8.8515625 C87.81323445 18.85923032 87.74672998 28.88520896 87.6640625 41.6640625 C87.66743709 43.50911782 87.67229504 45.35417097 87.67855835 47.19921875 C87.6858994 51.0523002 87.67531408 54.90479917 87.65185547 58.7578125 C87.62336919 63.6737302 87.63978812 68.58828266 87.66971779 73.50415039 C87.68786604 77.30999871 87.68199842 81.11552831 87.66907883 84.92138672 C87.66576557 86.73291184 87.66975791 88.54446678 87.68147659 90.35595703 C87.74156032 102.25167071 87.12264986 111.23673661 78.8125 120.4765625 C68.80483218 129.47729695 58.77885354 129.41079248 46 129.328125 C44.15494468 129.33149959 42.30989153 129.33635754 40.46484375 129.34262085 C36.6117623 129.3499619 32.75926333 129.33937658 28.90625 129.31591797 C23.9903323 129.28743169 19.07577984 129.30385062 14.15991211 129.33378029 C10.35406379 129.35192854 6.54853419 129.34606092 2.74267578 129.33314133 C0.93115066 129.32982807 -0.88040428 129.33382041 -2.69189453 129.34553909 C-14.58760821 129.40562282 -23.57267411 128.78671236 -32.8125 120.4765625 C-41.81323445 110.46889468 -41.74672998 100.44291604 -41.6640625 87.6640625 C-41.66743709 85.81900718 -41.67229504 83.97395403 -41.67855835 82.12890625 C-41.6858994 78.2758248 -41.67531408 74.42332583 -41.65185547 70.5703125 C-41.62336919 65.6543948 -41.63978812 60.73984234 -41.66971779 55.82397461 C-41.68786604 52.01812629 -41.68199842 48.21259669 -41.66907883 44.40673828 C-41.66576557 42.59521316 -41.66975791 40.78365822 -41.68147659 38.97216797 C-41.74156032 27.07645429 -41.12264986 18.09138839 -32.8125 8.8515625 C-22.80483218 -0.14917195 -12.77885354 -0.08266748 0 0 Z " fill="#010101" transform="translate(41,-0.6640625)"/>
<path d="M0 0 C0.79994888 -0.00428513 1.59989777 -0.00857025 2.42408752 -0.01298523 C4.1109218 -0.01871154 5.79778075 -0.01924135 7.48461914 -0.01489258 C10.05463087 -0.01173323 12.6234898 -0.03520979 15.19335938 -0.06054688 C16.83723814 -0.06282023 18.48111998 -0.06352319 20.125 -0.0625 C20.88767685 -0.07170975 21.6503537 -0.08091949 22.43614197 -0.09040833 C27.22464416 -0.04922142 30.46640362 0.69236257 34.62890625 3.30078125 C39.33496515 8.51560327 39.80552089 11.92919429 39.8671875 18.78125 C39.87525925 19.62746414 39.88333099 20.47367828 39.89164734 21.34553528 C39.90549213 23.14024811 39.91621252 24.93498731 39.92407227 26.72973633 C39.94123052 29.46031522 39.98510519 32.18966594 40.02929688 34.91992188 C40.03942884 36.6653557 40.04794337 38.4107998 40.0546875 40.15625 C40.07219559 40.96692429 40.08970367 41.77759857 40.10774231 42.61283875 C40.08616442 48.32028278 39.02909342 51.6658791 35.62890625 56.30078125 C31.35211824 60.06225885 26.804048 59.75305003 21.3828125 59.734375 C20.49407944 59.73961685 19.60534637 59.7448587 18.68968201 59.7502594 C16.81453493 59.75666807 14.9393476 59.75535758 13.06420898 59.74682617 C10.20418278 59.73831925 7.34615705 59.76708779 4.48632812 59.79882812 C2.66015685 59.80044046 0.83398205 59.79986199 -0.9921875 59.796875 C-2.26744545 59.81372597 -2.26744545 59.81372597 -3.56846619 59.83091736 C-8.94772699 59.76817318 -12.21878992 59.0423363 -16.37109375 55.30078125 C-19.19485072 50.99589784 -19.73417911 47.68498404 -19.6640625 42.58984375 C-19.65439453 41.34589844 -19.64472656 40.10195312 -19.63476562 38.8203125 C-19.60962891 37.53511719 -19.58449219 36.24992187 -19.55859375 34.92578125 C-19.53829102 32.96318359 -19.53829102 32.96318359 -19.51757812 30.9609375 C-19.48231745 27.74046281 -19.43303008 24.52083519 -19.37109375 21.30078125 C-18.05109375 21.30078125 -16.73109375 21.30078125 -15.37109375 21.30078125 C-15.35651123 22.06221436 -15.34192871 22.82364746 -15.3269043 23.6081543 C-15.25228834 27.06870013 -15.15567116 30.5282957 -15.05859375 33.98828125 C-15.03603516 35.18646484 -15.01347656 36.38464844 -14.99023438 37.61914062 C-14.93706055 39.35454102 -14.93706055 39.35454102 -14.8828125 41.125 C-14.85662842 42.18807373 -14.83044434 43.25114746 -14.8034668 44.34643555 C-14.3128595 47.69868791 -13.37637254 49.58873114 -11.37109375 52.30078125 C-7.78687079 54.69026322 -5.99876779 54.60311293 -1.734375 54.71484375 C-0.43564453 54.75351563 0.86308594 54.7921875 2.20117188 54.83203125 C3.57291198 54.86348642 4.94465686 54.89473376 6.31640625 54.92578125 C7.6998941 54.96397322 9.08335848 55.00302567 10.46679688 55.04296875 C13.85403075 55.13738642 17.24125694 55.22296243 20.62890625 55.30078125 C20.58463902 50.97671239 20.51469025 46.65403453 20.42138672 42.33081055 C20.39324014 40.86152675 20.37199416 39.3920933 20.35791016 37.92260742 C20.33639095 35.80440011 20.28970291 33.68797972 20.23828125 31.5703125 C20.21733398 30.29776611 20.19638672 29.02521973 20.17480469 27.71411133 C19.54464868 23.77394537 18.40809406 22.10825513 15.62890625 19.30078125 C12.44975908 17.71120766 9.00906243 18.09544403 5.515625 18.0625 C4.7090596 18.05442825 3.9024942 18.04635651 3.07148743 18.03804016 C1.36254018 18.02419982 -0.34643471 18.01347743 -2.05541992 18.00561523 C-4.66313405 17.98841619 -7.26957562 17.94453331 -9.87695312 17.90039062 C-11.5377511 17.89026228 -13.19855985 17.88174662 -14.859375 17.875 C-15.6366243 17.85749191 -16.4138736 17.83998383 -17.2146759 17.82194519 C-20.98277842 17.83696538 -23.13604482 18.15025949 -26.34057617 20.20239258 C-29.89049182 23.87096598 -29.54614979 27.07749508 -29.57421875 31.94140625 C-29.57991882 32.70120789 -29.5856189 33.46100952 -29.5914917 34.24383545 C-29.60094567 35.85443732 -29.60747726 37.46505858 -29.61132812 39.07568359 C-29.62100137 41.52736757 -29.65200625 43.97820152 -29.68359375 46.4296875 C-29.69012727 47.99608878 -29.69537637 49.56249605 -29.69921875 51.12890625 C-29.71156555 51.8572467 -29.72391235 52.58558716 -29.7366333 53.33599854 C-29.71619936 58.06007844 -28.8882459 61.29754414 -26.37109375 65.30078125 C-23.07519461 66.94873082 -19.40905495 66.48535529 -15.78515625 66.50390625 C-14.50516251 66.51245636 -14.50516251 66.51245636 -13.1993103 66.5211792 C-11.39200075 66.53063323 -9.58467393 66.53716478 -7.77734375 66.54101562 C-5.01401645 66.55071832 -2.25143381 66.58173616 0.51171875 66.61328125 C2.26692266 66.61981161 4.0221319 66.62506195 5.77734375 66.62890625 C7.01658096 66.64742645 7.01658096 66.64742645 8.28085327 66.6663208 C12.83314696 66.64867097 15.09393578 66.38307205 18.62890625 63.30078125 C19.94890625 63.30078125 21.26890625 63.30078125 22.62890625 63.30078125 C22.29356849 66.43060037 21.62824224 67.30139284 19.25390625 69.48828125 C14.76289549 72.58921725 10.71923776 72.47502928 5.453125 72.50390625 C4.65034622 72.50960632 3.84756744 72.5153064 3.02046204 72.5211792 C1.32167882 72.53062164 -0.37712265 72.53716018 -2.07592773 72.54101562 C-4.66357751 72.55070629 -7.25042771 72.58172983 -9.83789062 72.61328125 C-11.49088072 72.61981326 -13.14387647 72.62506296 -14.796875 72.62890625 C-15.56582596 72.64125305 -16.33477692 72.65359985 -17.12702942 72.6663208 C-21.94308147 72.64653867 -25.1835728 71.9265548 -29.37109375 69.30078125 C-34.27006309 64.00459818 -34.54654006 59.65215607 -34.609375 52.6875 C-34.61744675 51.84032913 -34.62551849 50.99315826 -34.63383484 50.12031555 C-34.64766065 48.32738279 -34.65838953 46.53442387 -34.66625977 44.74145508 C-34.68346478 42.00876619 -34.72736224 39.27728999 -34.77148438 36.54492188 C-34.78161262 34.80079012 -34.79012831 33.05664811 -34.796875 31.3125 C-34.81438309 30.49980148 -34.83189117 29.68710297 -34.84992981 28.84977722 C-34.8297089 23.523046 -33.88944574 20.53567713 -30.37109375 16.30078125 C-26.66386458 13.37402138 -24.04368594 12.97478645 -19.37109375 13.30078125 C-19.30921875 12.59953125 -19.24734375 11.89828125 -19.18359375 11.17578125 C-18.08271434 7.2803618 -16.18425125 5.17787415 -13.37109375 2.30078125 C-9.05383605 -0.02389597 -4.79068877 -0.00570977 0 0 Z " fill="#EDEDED" transform="translate(61.37109375,27.69921875)"/>
<path d="M0 0 C0.84812759 -0.00761353 1.69625519 -0.01522705 2.57008362 -0.02307129 C4.36122702 -0.03386137 6.15243328 -0.03672982 7.94360352 -0.03222656 C10.67896812 -0.03125442 13.41152484 -0.07288071 16.14648438 -0.1171875 C17.88931708 -0.12239498 19.63215951 -0.12508269 21.375 -0.125 C22.18972275 -0.14139526 23.0044455 -0.15779053 23.84385681 -0.17468262 C28.20525516 -0.12180504 29.75652536 0.05743788 33.24633789 2.94335938 C34.24008423 4.19342773 34.24008423 4.19342773 35.25390625 5.46875 C35.74890625 5.96375 35.74890625 5.96375 36.25390625 6.46875 C36.37975851 9.07656133 36.44256657 11.65642974 36.45703125 14.265625 C36.46273132 15.0514093 36.4684314 15.8371936 36.4743042 16.64678955 C36.48377054 18.31464282 36.49029464 19.98251493 36.49414062 21.65039062 C36.50381346 24.19434709 36.53480668 26.73748451 36.56640625 29.28125 C36.57293943 30.90103686 36.57818866 32.52082952 36.58203125 34.140625 C36.59437805 34.89913757 36.60672485 35.65765015 36.6194458 36.43914795 C36.60043078 40.98297287 36.02846827 43.84099747 33.25390625 47.46875 C30.23902676 50.28912114 29.58668291 50.46875 25.25390625 50.46875 C25.23932373 49.49526611 25.22474121 48.52178223 25.2097168 47.51879883 C25.15157329 43.89359524 25.07434248 40.2690024 24.99145508 36.64428711 C24.95828093 35.07798199 24.93022567 33.51155949 24.9074707 31.94506836 C24.87378509 29.68813237 24.82146576 27.43226474 24.765625 25.17578125 C24.75923508 24.47975296 24.75284515 23.78372467 24.7462616 23.06660461 C24.61571806 18.71184371 24.00652147 15.87885264 21.25390625 12.46875 C17.32844119 9.35797996 14.13708692 9.06200916 9.203125 8.95703125 C8.54431839 8.93908005 7.88551178 8.92112885 7.20674133 8.90263367 C5.11835994 8.84878344 3.03020365 8.81471892 0.94140625 8.78125 C-0.48115095 8.7480543 -1.90367854 8.71356256 -3.32617188 8.67773438 C-6.7992629 8.59307399 -10.27243288 8.5261423 -13.74609375 8.46875 C-13.43780209 5.61705211 -13.10861156 3.89520033 -11.23022461 1.68554688 C-7.57305651 -0.1058365 -3.98906383 0.00098373 0 0 Z " fill="#070707" transform="translate(60.74609375,32.53125)"/>
</svg>
